<?xml version="1.0" encoding="UTF-8" standalone="no"?>
<svg
   width="340"
   height="120"
   viewBox="0 0 340 120"
   version="1.1"
   id="svg10"
   sodipodi:docname="logo-local-font.svg"
   xmlns:inkscape="http://www.inkscape.org/namespaces/inkscape"
   xmlns:sodipodi="http://sodipodi.sourceforge.net/DTD/sodipodi-0.dtd"
   xmlns="http://www.w3.org/2000/svg"
   xmlns:svg="http://www.w3.org/2000/svg">
  <sodipodi:namedview
     id="namedview10"
     pagecolor="#ffffff"
     bordercolor="#000000"
     borderopacity="0.25"
     inkscape:showpageshadow="2"
     inkscape:pageopacity="0.0"
     inkscape:pagecheckerboard="0"
     inkscape:deskcolor="#d1d1d1" />
  <defs
     id="defs3">
    <radialGradient
       id="glow"
       cx="50%"
       cy="50%"
       r="50%">
      <stop
         offset="0%"
         stop-color="#fbbf24"
         id="stop1" />
      <stop
         offset="50%"
         stop-color="#fbbf24"
         stop-opacity="0.6"
         id="stop2" />
      <stop
         offset="100%"
         stop-color="#fbbf24"
         stop-opacity="0"
         id="stop3" />
    </radialGradient>
  </defs>
  <rect
     x="0"
     y="0"
     width="340"
     height="120"
     rx="55"
     ry="55"
     fill="#1c1917"
     id="rect3" />
  <g
     transform="translate(26.5, 10) scale(0.095)"
     id="g6">
    <g
       transform="translate(52, 18) scale(0.98)"
       id="g5">
      <path
         fill="white"
         fill-rule="evenodd"
         d="M416.6 246.2 L210.4 731 L313 649.9 L326.7 649.9 L446.9 551.2 L539.7 639.1 L560.2 640.1 L698 731 L490.8 246.2 Z M392.1 543.3 L510.4 543.3 L450.8 382.1 Z"
         id="path3" />
      <path
         fill="white"
         d="M200.8 753.5 L318.8 753.5 L355 678.2 L393.1 697.8 L448.8 634.2 L473.3 659.6 L468.4 634.2 L475.2 627.4 L446.9 570.7 L334.5 667.5 Z"
         id="path4" />
      <path
         fill="white"
         d="M595.4 753.5 L707.6 753.5 L556.3 669.4 Z"
         id="path5" />
    </g>
  </g>
  <circle
     cx="104.5"
     cy="36"
     r="14"
     fill="url(#glow)"
     id="circle6" />
  <circle
     cx="104.5"
     cy="36"
     r="7"
     fill="#fbbf24"
     id="circle7" />
  <path
     d="M 99.595907,82 V 47.056 h 9.600003 V 82 Z m 14.936053,0 V 47.056 h 8.96 v 8.384 l -0.64,-1.216 q 1.152,-4.416 3.776,-5.952 2.688,-1.6 6.336,-1.6 h 2.048 v 8.32 h -3.008 q -3.52,0 -5.696,2.176 -2.176,2.112 -2.176,6.016 V 82 Z m 40.85598,14.08 q -4.032,0 -7.488,-1.344 -3.456,-1.344 -5.952,-3.776 -2.432,-2.368 -3.52,-5.632 l 8.896,-3.136 q 0.704,2.432 2.88,3.84 2.176,1.408 5.184,1.408 2.368,0 4.096,-0.896 1.728,-0.832 2.624,-2.496 0.96,-1.664 0.96,-3.904 v -8 l 1.856,2.304 q -1.792,2.944 -4.608,4.416 -2.816,1.408 -6.592,1.408 -4.864,0 -8.704,-2.176 -3.84,-2.24 -6.016,-6.08 -2.176,-3.904 -2.176,-8.832 0,-4.928 2.176,-8.704 2.176,-3.84 5.952,-6.016 3.776,-2.176 8.576,-2.176 3.776,0 6.592,1.536 2.816,1.472 4.8,4.544 l -1.216,2.304 v -7.616 h 8.96 v 33.088 q 0,4.608 -2.24,8.192 -2.24,3.648 -6.144,5.696 -3.84,2.048 -8.896,2.048 z m -0.32,-24.512 q 2.432,0 4.224,-1.024 1.792,-1.024 2.752,-2.88 1.024,-1.856 1.024,-4.352 0,-2.496 -1.024,-4.352 -1.024,-1.92 -2.816,-2.944 -1.792,-1.088 -4.16,-1.088 -2.432,0 -4.352,1.088 -1.856,1.024 -2.944,2.944 -1.024,1.856 -1.024,4.352 0,2.432 1.024,4.288 1.088,1.856 2.944,2.944 1.92,1.024 4.352,1.024 z M 178.70799,82 V 33.552 h 9.6 V 82 Z m 32.98401,0.768 q -5.184,0 -9.472,-2.368 -4.224,-2.368 -6.784,-6.464 -2.496,-4.16 -2.496,-9.408 0,-5.312 2.496,-9.408 2.56,-4.096 6.784,-6.464 4.288,-2.368 9.472,-2.368 5.184,0 9.408,2.368 4.224,2.368 6.72,6.464 2.56,4.096 2.56,9.408 0,5.248 -2.56,9.408 -2.496,4.096 -6.72,6.464 -4.224,2.368 -9.408,2.368 z m 0,-8.64 q 2.624,0 4.544,-1.216 1.984,-1.216 3.072,-3.392 1.152,-2.176 1.152,-4.992 0,-2.816 -1.152,-4.928 -1.088,-2.176 -3.072,-3.392 -1.92,-1.28 -4.544,-1.28 -2.624,0 -4.608,1.28 -1.984,1.216 -3.136,3.392 -1.088,2.112 -1.088,4.928 0,2.816 1.088,4.992 1.152,2.176 3.136,3.392 1.984,1.216 4.608,1.216 z M 243.58805,82 231.55605,47.056 h 9.92 l 8.448,25.216 -3.456,-0.064 9.408,-25.152 h 8.32 l 9.344,25.152 -3.456,0.064 8.448,-25.216 h 9.984 L 276.42005,82 h -8.32 l -9.728,-27.008 h 3.328 L 251.90805,82 Z"
     id="text7"
     style="font-weight:800;font-size:64px;font-family:'Plus Jakarta Sans';letter-spacing:-1;text-anchor:middle;fill:#ffffff"
     aria-label="ırglow" />
  <svg
     x="185.8"
     y="36"
     width="50"
     height="50"
     viewBox="0 0 100 120"
     overflow="visible"
     version="1.1"
     id="svg9">
    <circle
       cx="52"
       cy="69"
       r="45"
       fill="white"
       id="circle8" />
    <circle
       cx="52"
       cy="54.75"
       r="24"
       fill="#1c1917"
       id="circle9" />
  </svg>
</svg>
